<svg xmlns="http://www.w3.org/2000/svg" viewBox="0 0 512 512" role="img" aria-label="SytFix">
<rect width="512" height="512" rx="112" fill="#101816"/>
<path fill="#B8EF1B" d="M252 64c9 0 16 7 16 16v198h26c9 0 16 7 16 16v35l42 30v84l-92 60-92-60v-84l42-30v-35c0-9 7-16 16-16h26V80c0-9 7-16 16-16z"/>
<path fill="#F4F4EE" d="M108 152c34-58 91-96 158-106v42c-48 10-89 39-115 82-16 26-25 55-27 86H82c3-37 11-70 26-104zm296 0c15 34 23 67 26 104h-42c-2-31-11-60-27-86-26-43-67-72-115-82V46c67 10 124 48 158 106zM82 288h42c4 57 37 106 85 132 18 10 37 17 57 21v42c-93-13-166-91-184-195zm306 0h42c-18 104-91 182-184 195v-42c20-4 39-11 57-21 48-26 81-75 85-132z"/>
</svg>